<svg version="1.0" xmlns="http://www.w3.org/2000/svg" width="128" height="100">
  <path d="M62.5 96.2c-3.4-1.3-6.6-6-8.7-13-1.3-4.2-3.1-13.1-3.1-15.6 0-.5.2-.7 1-1 2.2-.7 4.7-4.3 6-8.7.8-3 .8-9.8 0-13-1.3-4.9-3.5-7.7-6.6-8.5-.9-.2-1-.7-.2-5.9 2-14 5.8-23.1 10.6-25.8 2.8-1.4 4.3-1.1 6.3 1.3 5.2 6.5 9.3 22 10 38.3 1 16.7-2 35.1-7.4 46a16.5 16.5 0 01-3.7 5.2c-1 .9-1.3 1-2.4 1-.7 0-1.5-.1-1.8-.3z" fill="#544e61"/>
  <g fill="#2c93ad">
    <path d="M102.7 95.3c0-.2.7-2 1.7-4.2 15.5-34.8 15.7-47.5 1-79.6L103 5.7c0-.7 8.4 11.5 12.2 17.8 2.3 3.6 5.4 10.1 6.6 13.3 2.1 6 3 12 2.6 16.6-1.2 10.6-5.7 20-18.5 38-3 4.1-3.1 4.3-3.1 3.9z"/>
    <path d="M90.5 82.9l2.6-6C103 54.1 103 44.2 93 22c-1.4-3-2.4-5.3-2.3-5.4.2-.2 5.8 7.9 8.7 12.6 11 18.3 9.6 28.8-6.8 51.3a40 40 0 01-2.5 3.2s0-.4.3-.8z"/>
    <path d="M83.2 68.9C89 56.2 89.5 50 86.1 40.5l-2.7-6.4c-.4-.9-.6-1.6-.5-1.6.4 0 5.5 8 6.7 10.6 1.7 3.5 2.2 5.6 2.2 8.4 0 3.7-1 6.7-3.9 11.6a56 56 0 01-5.3 7.6l.6-1.8z"/>
  </g>
  <path d="M50.1 95.5c-2.2-1.9-6.1-8.7-8.6-14.7-1-2.3-2.6-4.6-12.4-16.8l-2.3-2.8-2-.6c-1-.3-1.9-.5-2-.4l-.1 1.2c0 1.4-.8 4.7-1.4 6.5-.3.8-.9 1.7-1.3 2.1-.8.7-.9.7-5.7.7-4.3 0-4.9 0-5.6-.6-2.2-1.3-4.1-5.4-5.3-11-.5-2.9-.5-13 .1-15.8 1-4.5 2.3-7.4 3.9-9.2 1.6-1.8 1.9-1.8 7-1.8 5.4 0 5.6 0 6.6 2.2a27.1 27.1 0 011.9 8c.1 0 1 0 2.1-.3l2-.5 5.7-7.2 5.7-7.2 1-3.2c2-6.2 4.2-10.8 7-14.9 1.6-2.5 3.8-4.7 5-5.2.8-.3 3.8-.3 3.8 0 0 .2-.1.3-.2.3-.3 0-2.8 2.3-3.8 3.7-4.9 6.2-8.3 17-9.8 31.4-.5 5.2-.4 18.9.3 24.2 1 9 3.1 16.8 6 22.7 1.8 4 3.4 6.3 5.6 8.5l1.9 1.7h-2c-2 0-2 0-3-1z" fill="#92aabf"/>
</svg>
