<svg version="1.0" xmlns="http://www.w3.org/2000/svg" width="512px" height="112px" viewBox="0 0 5120 1120" preserveAspectRatio="xMidYMid meet">
<g id="layer101" fill="#222" stroke="none">
 <path d="M685 708 c-49 -18 -105 -61 -185 -143 -74 -76 -151 -125 -197 -125 -20 0 -23 -5 -23 -36 0 -37 0 -37 45 -31 71 10 123 43 225 142 112 108 158 135 232 135 79 -1 130 -29 237 -135 121 -119 180 -149 279 -143 95 5 149 35 261 145 111 108 154 133 232 133 78 -1 121 -25 229 -132 121 -120 166 -143 275 -143 105 1 141 20 267 142 107 103 158 133 233 133 75 0 126 -30 233 -133 114 -111 162 -138 252 -144 107 -8 159 18 291 143 120 115 152 134 231 134 76 0 127 -30 232 -135 118 -117 163 -140 271 -140 105 1 151 25 273 145 92 91 153 129 204 130 32 0 42 13 34 46 -5 20 -12 24 -44 24 -65 0 -132 -41 -235 -143 -116 -114 -149 -132 -238 -132 -61 0 -72 3 -120 37 -30 21 -87 71 -128 113 -95 95 -152 125 -241 125 -110 0 -148 -19 -271 -137 -118 -112 -169 -143 -239 -143 -70 0 -122 31 -231 135 -123 118 -174 145 -274 145 -102 0 -150 -26 -282 -152 -121 -115 -163 -136 -248 -125 -68 10 -96 28 -214 141 -120 114 -161 136 -261 136 -100 0 -141 -22 -261 -136 -131 -125 -154 -138 -239 -139 -87 0 -114 15 -234 131 -121 118 -171 144 -271 143 -38 0 -83 -5 -100 -11z"/>
 </g>
</svg>