<svg xmlns="http://www.w3.org/2000/svg" xmlns:xlink="http://www.w3.org/1999/xlink" width="512" height="276" id="mask">
<defs>
<filter id="filter">
<feGaussianBlur in="SourceGraphic" stdDeviation="25" />
</filter>
</defs>
 <g id="layer101" fill="#000" stroke="none" filter="url(#filter)">
  <path d="M319.3 273.65 c3.25 -5.7 9.4 -15.25 17.1 -26.65 10.3 -15.3 13.4 -21.5 14.65 -29.6 1.55 -9.9 -3.6 -25.85 -13.45 -41.65 -14.05 -22.5 -33.45 -39.4 -61.35 -53.4 -12.35 -6.15 -15.9 -7.5 -40 -15.1 -70.25 -22.15 -83.8 -27.95 -96.55 -41.3 -5.95 -6.3 -15.05 -21.65 -18.3 -30.95 -4.3 -12.15 -5.25 -22.75 -3 -33 l0.4 -1.75 196.6 -0.15 196.6 -0.1 0 138 0 138 -97 0 -97.05 0 1.35 -2.35z"/>
</g>
</svg>
